<?xml version="1.0" encoding="UTF-8"?>
<svg width="700pt" height="700pt" version="1.1" viewBox="0 0 700 700" xmlns="http://www.w3.org/2000/svg">
 <path d="m195.21 512.06c-1.5586 0.21484-3.1406 0.21484-4.7031 0-5.4336-2.0547-8.8867-7.418-8.5117-13.215v-79.297c-21.895-20.801-39.184-45.961-50.758-73.855-11.574-27.895-17.176-57.902-16.441-88.094 0-117.38 105.5-212.8 235.2-212.8s235.2 95.422 235.2 212.8c0 117.38-105.5 212.8-235.2 212.8-32.363 0.097656-64.445-5.9844-94.527-17.918l-51.074 55.328c-2.4297 2.5039-5.6992 4.0195-9.1836 4.2539zm154.79-444.86c-117.38 0-212.8 85.344-212.8 190.4-0.86328 27.785 4.3438 55.426 15.254 81 10.906 25.57 27.258 48.457 47.914 67.062l4.0312 3.3594v66.078l44.801-49.5 7.3906 3.3594h0.003906c29.492 12.711 61.293 19.191 93.406 19.039 117.38 0 212.8-85.344 212.8-190.4 0-105.06-95.426-190.4-212.8-190.4z"/>
</svg>
