<?xml version="1.0" encoding="UTF-8"?>
<svg width="700pt" height="700pt" version="1.1" viewBox="0 0 700 700" xmlns="http://www.w3.org/2000/svg">
 <path d="m313.78 516.82c-78.453-61.398-139.89-125.97-179.33-187.88-39.473-61.969-57.121-121.62-48.125-173.32 5.9531-34.207 20.992-64.859 42.879-87.227 13.883-14.246 30.625-25.148 49.602-31.531 18.922-6.3633 39.938-8.1875 62.445-4.2734 33.535 5.832 70.473 24.418 108.75 59.738 38.277-35.32 75.219-53.906 108.75-59.738 22.508-3.9141 43.535-2.0898 62.457 4.2734 18.977 6.3906 35.719 17.289 49.625 31.512l0.61328 0.67969c21.531 22.316 36.34 52.688 42.23 86.566 9.0078 51.695-8.6328 111.33-48.113 173.3-39.441 61.91-100.91 126.5-179.36 187.9-10.77 8.4336-23.508 12.652-36.211 12.652-12.707 0-25.445-4.2188-36.211-12.652zm-110.17-445.93c6.0859-1.0312 11.871 3.0625 12.906 9.1484 1.0312 6.0859-3.0625 11.871-9.1484 12.906-13.637 2.3359-25.066 9.1523-34.188 18.547-10.906 11.23-18.652 26.145-23.168 41.711-1.7148 5.918-7.9102 9.3242-13.832 7.6133-5.918-1.7148-9.3242-7.9102-7.6133-13.832 5.4766-18.871 15.02-37.098 28.594-51.074 12.258-12.621 27.766-21.812 46.453-25.016zm-80.285 116.27c-0.23828-6.1562 4.5625-11.355 10.723-11.594 6.1562-0.23828 11.355 4.5625 11.594 10.723l0.31641 5.7617c0.38281 6.1562-4.3008 11.477-10.457 11.859s-11.477-4.3008-11.859-10.457l-0.31641-6.2891zm29.93 129.8c38.07 59.758 97.777 122.41 174.27 182.27 6.6719 5.2266 14.578 7.8359 22.469 7.8359 7.8906 0 15.793-2.6133 22.469-7.8359 76.492-59.867 136.21-122.52 174.29-182.29 36.457-57.234 52.895-111.5 44.871-157.56-5.125-29.484-17.84-55.73-36.234-74.785l-0.58203-0.55469c-11.547-11.805-25.281-20.801-40.699-25.992-15.469-5.1992-32.832-6.6602-51.609-3.3984-31.598 5.4961-67.16 24.359-104.68 61.055-4.332 4.2578-11.316 4.2734-15.664 0-37.516-36.695-73.074-55.559-104.67-61.055-18.77-3.2617-36.125-1.8008-51.598 3.3984-15.41 5.1875-29.148 14.18-40.699 25.988-18.738 19.109-31.641 45.578-36.82 75.348-8.0117 46.074 8.4258 100.34 44.883 157.58z"/>
</svg>
