<?xml version="1.0" encoding="UTF-8"?>
<svg width="700pt" height="700pt" version="1.1" viewBox="0 0 700 700" xmlns="http://www.w3.org/2000/svg">
 <path d="m562.45 467.77-112-112c28.285-34.77 42.148-79.066 38.738-123.76-3.4141-44.691-23.844-86.367-57.082-116.44-33.234-30.07-76.742-46.242-121.55-45.184-44.809 1.0625-87.504 19.273-119.28 50.883-31.609 31.777-49.82 74.473-50.883 119.28-1.0586 44.809 15.113 88.316 45.184 121.55 30.074 33.238 71.75 53.668 116.44 57.082 44.691 3.4102 88.988-10.453 123.76-38.738l112 112c4.5078 3.8594 10.66 5.1719 16.348 3.4922 5.6875-1.6836 10.137-6.1328 11.82-11.82 1.6797-5.6875 0.36719-11.84-3.4922-16.348zm-346.5-123.72c-26.266-26.25-41.027-61.863-41.035-98.996-0.007812-37.137 14.738-72.754 40.992-99.016 26.258-26.262 61.871-41.016 99.008-41.016 37.133 0 72.75 14.754 99.004 41.016 26.258 26.262 41.004 61.879 40.996 99.016-0.007812 37.133-14.773 72.746-41.039 98.996-26.137 26.449-61.777 41.336-98.961 41.336-37.188 0-72.828-14.887-98.965-41.336z"/>
</svg>
