<svg xmlns:xlink="http://www.w3.org/1999/xlink" xmlns="http://www.w3.org/2000/svg" aria-label="Favorited" fill="url(#favorite_icon_gradient)" height="16" role="img" viewBox="0 0 24 24" width="16"><defs><linearGradient gradientUnits="userSpaceOnUse" id="favorite_icon_gradient" x1="11.0831" x2="20.5113" y1="20.7141" y2="4.71407"><stop stop-color="#FDCB5C"></stop><stop offset="1" stop-color="#D10869"></stop></linearGradient><linearGradient gradientUnits="userSpaceOnUse" id="favorite_icon_gradient" x1="11.0831" x2="20.5113" y1="20.7141" y2="4.71407"><stop stop-color="#FDCB5C"></stop><stop offset="1" stop-color="#D10869"></stop></linearGradient></defs><path d="M18.18 22.51a.99.99 0 01-.513-.142L12 18.975l-5.667 3.393a1 1 0 01-1.492-1.062l1.37-6.544-4.876-4.347a.999.999 0 01.536-1.737l6.554-.855 2.668-5.755a1 1 0 011.814 0l2.668 5.755 6.554.855a.999.999 0 01.536 1.737l-4.876 4.347 1.37 6.544a1 1 0 01-.978 1.205z" fill="url(&quot;#favorite_icon_gradient&quot;)"></path></svg>